<?xml version="1.0" encoding="UTF-8"?>
<svg width="2px" height="412px" viewBox="0 0 2 412" version="1.1" xmlns="http://www.w3.org/2000/svg" xmlns:xlink="http://www.w3.org/1999/xlink">
    <!-- Generator: Sketch 49.3 (51167) - http://www.bohemiancoding.com/sketch -->
    <title>Line Dots</title>
    <desc>Created with Sketch.</desc>
    <defs></defs>
    <g id="Page-1" stroke="none" stroke-width="1" fill="none" fill-rule="evenodd">
        <g id="Acción-correctiva-NC" transform="translate(-147.000000, -222.000000)" fill="#D8D8D8">
            <g id="Line-Dots" transform="translate(147.000000, 222.000000)">
                <circle id="Oval-7" cx="1" cy="1" r="1"></circle>
                <circle id="Oval-7-Copy" cx="1" cy="6" r="1"></circle>
                <circle id="Oval-7-Copy-2" cx="1" cy="11" r="1"></circle>
                <circle id="Oval-7-Copy-3" cx="1" cy="16" r="1"></circle>
                <circle id="Oval-7-Copy-4" cx="1" cy="21" r="1"></circle>
                <circle id="Oval-7-Copy-5" cx="1" cy="26" r="1"></circle>
                <circle id="Oval-7-Copy-6" cx="1" cy="31" r="1"></circle>
                <circle id="Oval-7-Copy-7" cx="1" cy="36" r="1"></circle>
                <circle id="Oval-7-Copy-8" cx="1" cy="41" r="1"></circle>
                <circle id="Oval-7-Copy-9" cx="1" cy="46" r="1"></circle>
                <circle id="Oval-7-Copy-10" cx="1" cy="51" r="1"></circle>
                <circle id="Oval-7-Copy-11" cx="1" cy="56" r="1"></circle>
                <circle id="Oval-7-Copy-12" cx="1" cy="61" r="1"></circle>
                <circle id="Oval-7-Copy-13" cx="1" cy="66" r="1"></circle>
                <circle id="Oval-7-Copy-14" cx="1" cy="71" r="1"></circle>
                <circle id="Oval-7-Copy-15" cx="1" cy="76" r="1"></circle>
                <circle id="Oval-7-Copy-16" cx="1" cy="81" r="1"></circle>
                <circle id="Oval-7-Copy-17" cx="1" cy="86" r="1"></circle>
                <circle id="Oval-7-Copy-18" cx="1" cy="91" r="1"></circle>
                <circle id="Oval-7-Copy-19" cx="1" cy="96" r="1"></circle>
                <circle id="Oval-7-Copy-20" cx="1" cy="101" r="1"></circle>
                <circle id="Oval-7-Copy-21" cx="1" cy="106" r="1"></circle>
                <circle id="Oval-7-Copy-22" cx="1" cy="111" r="1"></circle>
                <circle id="Oval-7-Copy-23" cx="1" cy="116" r="1"></circle>
                <circle id="Oval-7-Copy-24" cx="1" cy="121" r="1"></circle>
                <circle id="Oval-7-Copy-25" cx="1" cy="126" r="1"></circle>
                <circle id="Oval-7-Copy-26" cx="1" cy="131" r="1"></circle>
                <circle id="Oval-7-Copy-27" cx="1" cy="136" r="1"></circle>
                <circle id="Oval-7-Copy-28" cx="1" cy="141" r="1"></circle>
                <circle id="Oval-7-Copy-29" cx="1" cy="146" r="1"></circle>
                <circle id="Oval-7-Copy-30" cx="1" cy="151" r="1"></circle>
                <circle id="Oval-7-Copy-31" cx="1" cy="156" r="1"></circle>
                <circle id="Oval-7-Copy-32" cx="1" cy="161" r="1"></circle>
                <circle id="Oval-7-Copy-33" cx="1" cy="166" r="1"></circle>
                <circle id="Oval-7-Copy-34" cx="1" cy="171" r="1"></circle>
                <circle id="Oval-7-Copy-35" cx="1" cy="176" r="1"></circle>
                <circle id="Oval-7-Copy-36" cx="1" cy="181" r="1"></circle>
                <circle id="Oval-7-Copy-37" cx="1" cy="186" r="1"></circle>
                <circle id="Oval-7-Copy-38" cx="1" cy="191" r="1"></circle>
                <circle id="Oval-7-Copy-39" cx="1" cy="196" r="1"></circle>
                <circle id="Oval-7-Copy-40" cx="1" cy="201" r="1"></circle>
                <circle id="Oval-7-Copy-41" cx="1" cy="206" r="1"></circle>
                <circle id="Oval-7-Copy-42" cx="1" cy="211" r="1"></circle>
                <circle id="Oval-7-Copy-43" cx="1" cy="216" r="1"></circle>
                <circle id="Oval-7-Copy-44" cx="1" cy="221" r="1"></circle>
                <circle id="Oval-7-Copy-45" cx="1" cy="226" r="1"></circle>
                <circle id="Oval-7-Copy-46" cx="1" cy="231" r="1"></circle>
                <circle id="Oval-7-Copy-47" cx="1" cy="236" r="1"></circle>
                <circle id="Oval-7-Copy-48" cx="1" cy="241" r="1"></circle>
                <circle id="Oval-7-Copy-49" cx="1" cy="246" r="1"></circle>
                <circle id="Oval-7-Copy-50" cx="1" cy="251" r="1"></circle>
                <circle id="Oval-7-Copy-51" cx="1" cy="256" r="1"></circle>
                <circle id="Oval-7-Copy-52" cx="1" cy="261" r="1"></circle>
                <circle id="Oval-7-Copy-53" cx="1" cy="266" r="1"></circle>
                <circle id="Oval-7-Copy-54" cx="1" cy="271" r="1"></circle>
                <circle id="Oval-7-Copy-55" cx="1" cy="276" r="1"></circle>
                <circle id="Oval-7-Copy-56" cx="1" cy="281" r="1"></circle>
                <circle id="Oval-7-Copy-57" cx="1" cy="286" r="1"></circle>
                <circle id="Oval-7-Copy-58" cx="1" cy="291" r="1"></circle>
                <circle id="Oval-7-Copy-59" cx="1" cy="296" r="1"></circle>
                <circle id="Oval-7-Copy-60" cx="1" cy="301" r="1"></circle>
                <circle id="Oval-7-Copy-61" cx="1" cy="306" r="1"></circle>
                <circle id="Oval-7-Copy-62" cx="1" cy="311" r="1"></circle>
                <circle id="Oval-7-Copy-63" cx="1" cy="316" r="1"></circle>
                <circle id="Oval-7-Copy-64" cx="1" cy="321" r="1"></circle>
                <circle id="Oval-7-Copy-65" cx="1" cy="326" r="1"></circle>
                <circle id="Oval-7-Copy-66" cx="1" cy="331" r="1"></circle>
                <circle id="Oval-7-Copy-67" cx="1" cy="336" r="1"></circle>
                <circle id="Oval-7-Copy-68" cx="1" cy="341" r="1"></circle>
                <circle id="Oval-7-Copy-69" cx="1" cy="346" r="1"></circle>
                <circle id="Oval-7-Copy-70" cx="1" cy="351" r="1"></circle>
                <circle id="Oval-7-Copy-71" cx="1" cy="356" r="1"></circle>
                <circle id="Oval-7-Copy-72" cx="1" cy="361" r="1"></circle>
                <circle id="Oval-7-Copy-73" cx="1" cy="366" r="1"></circle>
                <circle id="Oval-7-Copy-74" cx="1" cy="371" r="1"></circle>
                <circle id="Oval-7-Copy-75" cx="1" cy="376" r="1"></circle>
                <circle id="Oval-7-Copy-76" cx="1" cy="381" r="1"></circle>
                <circle id="Oval-7-Copy-77" cx="1" cy="386" r="1"></circle>
                <circle id="Oval-7-Copy-78" cx="1" cy="391" r="1"></circle>
                <circle id="Oval-7-Copy-79" cx="1" cy="396" r="1"></circle>
                <circle id="Oval-7-Copy-80" cx="1" cy="401" r="1"></circle>
                <circle id="Oval-7-Copy-81" cx="1" cy="406" r="1"></circle>
                <circle id="Oval-7-Copy-82" cx="1" cy="411" r="1"></circle>
            </g>
        </g>
    </g>
</svg>